<svg width="189" height="101" viewBox="0 0 189 101" fill="none" xmlns="http://www.w3.org/2000/svg">
<path d="M18.5555 22.4673C15.342 17.7158 15.5187 26.7576 14.8956 29.4239C12.6084 39.2118 7.49081 54.6114 13.1606 64.3963C14.1444 66.0941 15.5631 67.4499 16.3629 65.0514" stroke="#212023" stroke-opacity="0.72" stroke-width="8" stroke-linecap="round"/>
<path d="M6.52055 7.46054C1.38049 2.79036 10.6224 4.07386 14.2677 4.43978" stroke="#212023" stroke-opacity="0.72" stroke-width="8" stroke-linecap="round"/>
<path d="M38.4349 23.1007C38.121 22.4748 37.799 24.4522 37.6931 24.741C34.5728 33.254 33.0149 45.5984 35.4084 54.5326C36.065 56.9836 38.5637 59.2892 37.6281 61.7652C36.6328 64.3991 38.6742 59.8694 38.9219 59.1072" stroke="#212023" stroke-opacity="0.72" stroke-width="8" stroke-linecap="round"/>
<path d="M36.632 41.9078C35.6264 36.0195 40.3766 29.2372 43.7348 24.6111C49.5966 16.5362 58.3525 13.1721 66.711 20.6051C71.2346 24.6278 69.71 29.2255 67.9887 34.3964C65.7705 41.0599 64.1783 49.2482 67.5285 55.821C67.7448 56.2455 70.4508 59.1169 69.5695 56.9146" stroke="#212023" stroke-opacity="0.72" stroke-width="8" stroke-linecap="round"/>
<path d="M97.6832 21.4928C91.8144 17.0447 77.7575 51.5935 90.5505 59.5403C96.5775 63.2841 105.44 62.6699 111.651 59.8813C120.543 55.8886 124.205 43.2954 124.487 34.2854C124.807 24.0639 116.518 20.1163 107.344 21.0137C102.26 21.511 90.8946 22.2599 94.711 30.9451" stroke="#212023" stroke-opacity="0.72" stroke-width="8" stroke-linecap="round"/>
<path d="M167.505 23.6367C166.892 11.0202 149.144 19.749 145.005 25.5829C140.088 32.5125 133.89 44.9534 138.85 53.347C144.242 62.4738 153.881 52.9051 157.966 47.806C162.701 41.8944 166.061 18.8698 165.691 26.4355C165.335 33.7171 162.88 40.814 162.619 48.2283C162.325 56.5629 162.465 64.4805 164.262 72.6684C165.07 76.3535 165.614 80.3962 164.912 84.1617C163.558 91.4151 158.02 93.2359 151.431 94.5614C145.533 95.7478 138.497 97.549 133.176 93.733C125.77 88.4217 136.039 77.6794 139.729 73.2856C145.822 66.0311 152.321 59.4081 161.371 56.1378C166.99 54.1072 176.31 50.4016 181.922 54.4893C182.375 54.8195 185.73 58.7915 183.952 59.3318C182.909 59.6485 181.083 58.0913 181.391 58.5225" stroke="#212023" stroke-opacity="0.72" stroke-width="8" stroke-linecap="round"/>
</svg>
